<svg viewBox="0 0 428 153" xmlns="http://www.w3.org/2000/svg" xmlns:xlink="http://www.w3.org/1999/xlink"><clipPath id="a"><path d="m0 0h428v153h-428z"/></clipPath><clipPath id="b"><path d="m0 0h428v153h-428z"/></clipPath><clipPath id="c"><path d="m319.42.13h95.63v95.25h-95.63z"/></clipPath><clipPath id="d"><path d="m176.33 115.76h245.71v37.24h-245.71z"/></clipPath><g clip-path="url(#a)"><g clip-path="url(#b)" fill="#335554"><path d="m4.6 52.99c3.15-.46 6.61-1.31 7.53-2.15.08-3.3.08-4.92.08-7.45v-26.66c0-3.46 0-5.45-.15-8.6-.92-.84-4.3-2-7.45-2.46-.15-.77-.38-2.07-.77-3.23 1.84 0 10.6.15 15.98.15 7.15 0 19.74-.15 24.81-.15-.08.54-.08 1.23-.08 2 0 3.15.54 8.53.92 10.68-.77 0-2.69.31-3.38.54-.77-2.53-4.15-7.3-6.3-8.37-3.53-.38-8.14-.85-10.91-.85-1.23 0-2.15.46-2.69 1.15-.08 2.61-.15 5.68-.15 9.14v9.14c3.07 0 4.3-.08 7.38-.31 2.15-1.15 3.76-4.61 4.3-6.99.31.08 1 .15 1.69.15s1.31-.08 1.69-.15c-.15 2.61-.31 7.22-.31 9.22 0 3.23.15 6.61.31 9.22-.38-.08-1-.08-1.69-.08s-1.38 0-1.69.08c-.54-2.38-2.15-5.84-4.3-6.99-3-.23-3.92-.31-7.38-.31v13.67c0 2.53 0 4.15.08 7.45.92.84 5.15 1.69 8.3 2.15.15.92.46 2.38.84 3.53h-27.51c.38-1.15.69-2.61.84-3.53"/><path d="m78.5 1.21c14.29 0 27.04 10.6 27.04 28.04s-13.37 28.58-28.58 28.58c-14.29 0-27.04-11.52-27.04-28.12 0-18.05 14.36-28.5 28.58-28.5m-.54 52.55c9.83 0 17.06-8.07 17.06-23.89s-7.99-24.58-17.52-24.58-17.05 8.14-17.05 23.82c0 16.52 8.07 24.66 17.52 24.66"/><path d="m112.14 52.99c2-.23 6.07-1.31 7.53-2.15.08-1.77.15-4.46.15-7.3v-26.97c0-3.69-.08-6.45-.15-8.45-1.31-1.15-5.53-2.23-7.53-2.46-.15-1-.46-2.15-.77-3.23.92 0 7.45.15 10.14.15 5.69-.08 11.45-.15 13.44-.15 12.75 0 18.82 4.61 18.82 12.83s-7.07 12.22-13.37 14.29v.31c1.92.84 3.84 2.15 5.84 4.69 3.99 5.07 5.91 11.6 10.22 16.21 1.69.92 4.61 1.84 6.61 2.23.15 1 .46 2.46.77 3.53-.92 0-16.21-.08-16.98 0-4.92-5.76-8.91-22.82-14.29-25.51-1 0-2 0-2.92-.15v12.68c0 2.84.08 4.76.15 7.3 1.46.92 4.3 1.84 6.22 2.15.15 1 .46 2.46.77 3.53h-25.43c.31-1.08.61-2.54.77-3.53m17.52-46.17c-.08 1.92-.15 7.76-.15 10.76 0 4.07 0 8.3.08 9.76 1 .23 2.23.38 3.84.38 5.99 0 9.91-4.61 9.91-10.29 0-6.53-3-11.06-9.76-11.06-1.61 0-2.92.15-3.92.46"/><path d="m193.65 1.21c5.91 0 9.91 2.38 12.45 2.38.61 0 1.61-.62 2.07-1.31.46.31 1.54.46 2.07.54-.08.46-.15 1-.15 1.54 0 3.07.62 10.45 1.08 12.98-.77 0-2.61.31-3.38.61-3.3-8.68-9.37-12.68-14.6-12.68-8.91 0-17.98 7.99-17.98 23.66s7.53 24.81 17.98 24.81c3.23 0 7.45-.84 9.22-1.77 2.07-2.23 5.07-7.99 5.99-10.53.69.15 2.61.54 3.38.54-.54 2.53-1.07 8.07-1.07 11.06 0 .46.07.92.07 1.23-4.61 1.92-12.21 3.53-18.75 3.53-15.59 0-27.35-10.91-27.35-27.81s14.38-28.78 28.97-28.78"/><path d="m218.85 56.52c.38-1.15.69-2.61.84-3.53 3.15-.46 6.61-1.31 7.53-2.15.08-3.3.08-4.92.08-7.45v-26.66c0-3.46 0-5.45-.15-8.6-.92-.84-4.3-2-7.45-2.46-.15-.77-.38-2.07-.77-3.23 1.84 0 10.6.15 15.98.15 7.15 0 20.36-.15 25.43-.15-.08.54-.08 1.23-.08 2 0 3.15.54 8.53.92 10.68-.77 0-2.69.31-3.38.54-.85-2.53-4.53-7.37-6.45-8.37-3.15-.54-8.07-.85-11.22-.85-1.23 0-2.38.54-2.84 1.15-.08 2.61-.15 5.68-.15 9.14v8.68c3.07 0 4.61-.08 7.68-.31 2.15-.92 3.76-4.61 4.3-6.99.31.08 1 .15 1.69.15s1.3-.08 1.69-.15c-.15 2.61-.31 7.22-.31 9.22 0 3.23.15 6.61.31 9.22-.39-.08-1-.08-1.69-.08s-1.38 0-1.69.08c-.54-2.38-2.15-6.07-4.3-6.99-2.92-.23-4.84-.31-7.68-.31v14.14c0 3.92.08 7.91.15 8.53.92.46 1.92.61 3.38.61 3.84 0 7.53-.38 11.91-1.08 2.15-.92 6.38-7.91 6.84-10.29.85.23 2.46.54 3.38.54-.77 3.53-1.46 10.6-1.46 13.83 0 .31 0 .46.08.92-10.37-.08-41.25.08-42.56.08"/><path d="m287.37 1.67c4.92 0 8.14 1.77 10.68 1.77.69 0 1.61-.77 2-1.31.77.31 1.54.46 2.07.61-.08.54-.08 2-.08 2.61 0 2.84.38 8.37.85 10.76-.77 0-2.69.38-3.38.69-2.07-7.76-7.07-11.29-12.91-11.29-4.07 0-7.22 3-7.22 6.99 0 4.38 2.38 7.38 8.37 9.6 14.37 5.38 17.82 9.83 17.82 18.05 0 9.91-8.37 17.29-19.82 17.29-5.15 0-12.29-1.38-16.13-3.53 0-3.07-.08-9.37-.54-13.29 1.08 0 2.46-.31 3.38-.54.92 2.69 4 9.07 5.69 11.22 1.84 1.23 4.84 2.15 8.45 2.15 5.76 0 9.76-4.07 9.76-8.68 0-5.53-2.15-8.3-11.83-12.06-8.99-3.53-14.14-7.53-14.14-16.44 0-8.14 6.45-14.6 16.98-14.6"/><path d="m33.75 66.57c-.16.56-.32 1.16-.4 1.68-1.04.12-2.64.6-3.32 1.2 1.88 5.31 4.67 12.86 7.03 18.5h.16c2.44-6.03 5.63-15.06 6.79-18.53-.68-.48-2.36-1.04-3.39-1.16-.08-.52-.24-1.12-.4-1.68.48 0 3.83.08 5.31.08s4.99-.08 5.39-.08c-.16.56-.32 1.16-.4 1.68-1.28.28-2.6.8-3.68 1.52-1.4 3.12-6.79 16.64-9.74 25.19 0 .02-2.64-.02-2.64.02-1.76-5.55-4.87-13.42-6.95-18.49h-.16c-2.44 5.75-4.93 12.35-6.97 18.5 0 0-2.61 0-2.62 0-2.8-8.87-8.31-21.33-10.23-25.53-.76-.6-2.12-1.08-3.16-1.2-.08-.52-.24-1.12-.4-1.68.48 0 4.59.08 6.07.08s6.43-.08 6.83-.08c-.16.56-.32 1.16-.4 1.68-1.04.12-2.48.6-3.16 1.2 1.88 5.31 4.67 13.14 7.03 18.42h.16c2-4.79 4.04-9.83 5.51-14.46-.52-1.32-1-2.76-1.64-3.96-.76-.6-2.12-1.08-3.16-1.2-.08-.52-.24-1.12-.4-1.68.48 0 4.59.08 6.07.08s6.43-.08 6.83-.08"/><path d="m60.17 94.69c.16-.56.32-1.32.4-1.84 1.04-.12 2.8-.56 3.55-.8-.68-2.08-1.56-4.35-2.4-6.71-1.4-.04-3.32-.08-4.67-.08-1.72 0-4.19.04-5.39.08-.92 2.28-1.72 4.19-2.36 6.39.68.44 2.48 1 3.52 1.12.08.52.24 1.28.4 1.84h-11.02c.16-.56.36-1.32.44-1.84 1.28-.12 2.72-.64 3.67-1.2 1.52-3.47 8.07-19.53 9.83-25.24.68 0 2.52-.12 3.2-.28 1.84 6.03 8.91 22.93 10.19 25.84.76.36 2.04.76 3.08.88.08.52.24 1.28.4 1.84h-12.82zm.8-11.46c-1.32-4.04-2.8-7.79-4.15-11.14h-.16c-1.24 3.04-3 7.59-4.2 11.14 1.12.04 3.63.04 4.59.04.72 0 2.8 0 3.92-.04"/><path d="m74.23 92.85c1.04-.12 3.16-.68 3.91-1.12.04-.92.08-2.32.08-3.8v-14.02c0-1.92-.04-3.36-.08-4.39-.68-.6-2.88-1.16-3.91-1.28-.08-.52-.24-1.12-.4-1.68.48 0 3.87.08 5.27.08 2.96-.04 5.95-.08 6.99-.08 6.63 0 9.79 2.4 9.79 6.67s-3.68 6.35-6.95 7.43v.16c1 .44 2 1.12 3.04 2.44 2.08 2.64 3.08 6.03 5.31 8.43.88.48 2.4.96 3.43 1.16.08.52.24 1.28.4 1.84-.48 0-8.43-.04-8.83 0-2.56-3-4.63-11.86-7.43-13.26-.52 0-1.04 0-1.52-.08v6.59c0 1.48.04 2.48.08 3.8.76.48 2.24.96 3.24 1.12.08.52.24 1.28.4 1.84h-13.22c.16-.56.32-1.32.4-1.84m9.11-24.01c-.04 1-.08 4.04-.08 5.59 0 2.12 0 4.31.04 5.07.52.12 1.16.2 2 .2 3.12 0 5.15-2.4 5.15-5.35 0-3.4-1.56-5.75-5.07-5.75-.84 0-1.52.08-2.04.24"/><path d="m114.9 92.85c1.04-.12 3.16-.68 3.91-1.12.04-.92.08-2.32.08-3.8v-14.02c0-1.92-.04-3.36-.08-4.39-.68-.6-2.88-1.16-3.91-1.28-.08-.52-.24-1.12-.4-1.68.48 0 3.87.08 5.27.08 2.96-.04 5.95-.08 6.99-.08 6.63 0 9.79 2.4 9.79 6.67s-3.68 6.35-6.95 7.43v.16c1 .44 2 1.12 3.04 2.44 2.08 2.64 3.08 6.03 5.31 8.43.88.48 2.4.96 3.43 1.16.08.52.24 1.28.4 1.84-.48 0-8.43-.04-8.83 0-2.56-3-4.63-11.86-7.43-13.26-.52 0-1.04 0-1.52-.08v6.59c0 1.48.04 2.48.08 3.8.76.48 2.24.96 3.24 1.12.08.52.24 1.28.4 1.84h-13.22c.16-.56.32-1.32.4-1.84m9.11-24.01c-.04 1-.08 4.04-.08 5.59 0 2.12 0 4.31.04 5.07.52.12 1.16.2 2 .2 3.12 0 5.15-2.4 5.15-5.35 0-3.4-1.56-5.75-5.07-5.75-.84 0-1.52.08-2.04.24"/><path d="m142.31 94.69c.2-.6.36-1.36.44-1.84 1.64-.24 3.44-.68 3.91-1.12.04-1.72.04-2.56.04-3.88v-13.86c0-1.8 0-2.84-.08-4.47-.48-.44-2.24-1.04-3.87-1.28-.08-.4-.2-1.08-.4-1.68.96 0 5.51.08 8.31.08 3.72 0 10.59-.08 13.22-.08-.04.28-.04.64-.04 1.04 0 1.64.28 4.43.48 5.55-.4 0-1.4.16-1.76.28-.44-1.32-2.36-3.84-3.36-4.35-1.64-.28-4.19-.44-5.83-.44-.64 0-1.24.28-1.48.6-.04 1.36-.08 2.96-.08 4.75v4.51c1.6 0 2.4-.04 3.99-.16 1.12-.48 1.96-2.4 2.24-3.64.16.04.52.08.88.08s.68-.04.88-.08c-.08 1.36-.16 3.76-.16 4.79 0 1.68.08 3.44.16 4.79-.2-.04-.52-.04-.88-.04s-.72 0-.88.04c-.28-1.24-1.12-3.16-2.24-3.64-1.52-.12-2.52-.16-3.99-.16v7.35c0 2.04.04 4.11.08 4.43.48.24 1 .32 1.76.32 2 0 3.91-.2 6.19-.56 1.12-.48 3.32-4.11 3.55-5.35.44.12 1.28.28 1.76.28-.4 1.84-.76 5.51-.76 7.19 0 .16 0 .24.04.48-5.39-.04-21.41.04-22.13.04"/><path d="m183.58 65.93c3.08 0 5.15 1.24 6.47 1.24.32 0 .84-.32 1.08-.68.24.16.8.24 1.08.28-.04.24-.08.52-.08.8 0 1.6.32 5.43.56 6.75-.4 0-1.36.16-1.76.32-1.72-4.51-4.87-6.59-7.59-6.59-4.63 0-9.35 4.15-9.35 12.3s3.91 12.9 9.35 12.9c1.68 0 3.87-.44 4.79-.92 1.08-1.16 2.64-4.16 3.12-5.47.36.08 1.36.28 1.76.28-.28 1.32-.56 4.19-.56 5.75 0 .24.04.48.04.64-2.4 1-6.35 1.84-9.75 1.84-8.11 0-14.22-5.67-14.22-14.46s7.47-14.98 15.06-14.98"/><path d="m211.3 65.93c7.43 0 14.06 5.51 14.06 14.58s-6.95 14.86-14.86 14.86c-7.43 0-14.06-5.99-14.06-14.62 0-9.39 7.47-14.82 14.86-14.82m-.28 27.32c5.11 0 8.87-4.19 8.87-12.42s-4.15-12.78-9.11-12.78-8.87 4.23-8.87 12.38c0 8.59 4.19 12.82 9.11 12.82"/><path d="m228.29 92.85c1.04-.12 3.16-.68 3.91-1.12.04-.92.08-2.32.08-3.8v-14.02c0-1.92-.04-3.36-.08-4.39-.68-.6-2.88-1.16-3.91-1.28-.08-.52-.24-1.12-.4-1.68.48 0 3.87.08 5.27.08 2.96-.04 5.95-.08 6.99-.08 6.63 0 9.79 2.4 9.79 6.67s-3.67 6.35-6.95 7.43v.16c1 .44 2 1.12 3.04 2.44 2.08 2.64 3.08 6.03 5.31 8.43.88.48 2.4.96 3.43 1.16.08.52.24 1.28.4 1.84-.48 0-8.43-.04-8.83 0-2.56-3-4.63-11.86-7.43-13.26-.52 0-1.04 0-1.52-.08v6.59c0 1.48.04 2.48.08 3.8.76.48 2.24.96 3.24 1.12.08.52.24 1.28.4 1.84h-13.22c.16-.56.32-1.32.4-1.84m9.11-24.01c-.04 1-.08 4.04-.08 5.59 0 2.12 0 4.31.04 5.07.52.12 1.16.2 2 .2 3.12 0 5.15-2.4 5.15-5.35 0-3.4-1.56-5.75-5.07-5.75-.84 0-1.52.08-2.04.24"/><path d="m256.13 92.85c1.64-.24 3.36-.68 3.83-1.12.04-1.72.04-2.56.04-3.87v-13.86c0-1.8 0-2.84-.08-4.47-.48-.44-2.16-1.04-3.79-1.28-.08-.4-.2-1.08-.4-1.68.84 0 4.19.08 6.87.08 1.88 0 5.47-.08 6.39-.08 8.71 0 15.1 5.59 15.1 13.34 0 8.71-6.99 14.82-15.1 14.82-1.2 0-12.58-.04-13.3-.04.2-.6.36-1.36.44-1.84m12.78-24.21c-1.16 0-2.84.04-3.76.16-.04 2.4-.16 7.39-.16 12.3 0 7.43.12 10.43.16 11.02.68.32 2.36.52 3.8.52 5.55 0 9.67-4.27 9.67-12.26 0-7.39-3.83-11.74-9.71-11.74"/><path d="m296.44 66.17c2.56 0 4.23.92 5.55.92.36 0 .84-.4 1.04-.68.4.16.8.24 1.08.32-.04.28-.04 1.04-.04 1.36 0 1.48.2 4.35.44 5.59-.4 0-1.4.2-1.76.36-1.08-4.03-3.67-5.87-6.71-5.87-2.12 0-3.75 1.56-3.75 3.63 0 2.28 1.24 3.84 4.35 4.99 7.47 2.8 9.27 5.11 9.27 9.39 0 5.15-4.35 8.99-10.31 8.99-2.68 0-6.39-.72-8.39-1.84 0-1.6-.04-4.87-.28-6.91.56 0 1.28-.16 1.76-.28.48 1.4 2.08 4.71 2.96 5.83.96.64 2.52 1.12 4.39 1.12 3 0 5.07-2.12 5.07-4.51 0-2.88-1.12-4.31-6.15-6.27-4.67-1.84-7.35-3.91-7.35-8.55 0-4.23 3.36-7.59 8.83-7.59"/></g><g clip-path="url(#c)" fill="#335554"><path d="m415.04.13c-.96.18-21.85 2.68-47.81 19.98-25.96-17.3-46.85-19.8-47.81-19.98l.56 15.53c.21.04 22.94 5.49 47.11 21.56v.18s.09-.06.14-.09c.05.03.09.06.14.09v-.18c24.17-16.07 46.9-21.51 47.12-21.56l.56-15.53z"/><path d="m415.04 29.12c-.96.18-21.85 2.68-47.81 19.98-25.96-17.3-46.86-19.79-47.81-19.98l.56 15.53c.21.04 22.94 5.49 47.11 21.56v.18s.09-.06.14-.09c.05.03.09.06.14.09v-.18c24.17-16.07 46.9-21.51 47.12-21.56l.56-15.53z"/><path d="m415.04 58.11c-.96.18-21.85 2.68-47.81 19.98-25.96-17.3-46.86-19.79-47.81-19.98l.56 15.53c.21.04 22.94 5.49 47.11 21.56v.18s.09-.06.14-.09c.05.03.09.06.14.09v-.18c24.17-16.07 46.9-21.51 47.12-21.56l.56-15.53z"/></g><g clip-path="url(#d)"><path d="m180.14 130.34c1.23-.95 2.59-1.77 3.95-1.77 2.18 0 3.95 2.04 3.95 4.5 0 3.41-3.13 8.04-8.99 8.04-.82 0-1.77-.14-2.72-.14l3.68-18.53c.27-1.09-.14-1.64-1.91-1.64l.14-.54 3.54-.95h.68zm-1.77 9.81c.54.14.82.14 1.23.14 3.95 0 6.27-2.59 6.27-6.54 0-2.18-1.09-3.68-2.86-3.68-1.09 0-1.77.41-2.86 1.5l-1.77 8.58z" fill="#54524f"/><path d="m201.4 129.65c-1.36.14-1.64.68-2.32 2.04l-6.68 12.13c-1.36 2.45-1.91 3.13-2.86 4.09-1.77 1.77-3.81 2.86-5.72 2.86-.27 0-.54-.14-.95-.14l.68-1.91c3.95 0 6.54-2.45 8.85-6.68l-.82-10.08c-.14-2.18-.41-2.45-1.5-2.45l.14-.54h5.18l-.14.54c-1.77 0-2.04.41-1.91 2.04l.54 7.36h.14l3.81-7.08c.41-.68.68-1.23.68-1.63 0-.55-.27-.68-1.09-.68l.14-.54h3.81v.68z" fill="#54524f"/><g fill="#545250"><path d="m274.71 141.88c-1.89 0-3.6-1.23-4.07-3.12-.95 1.7-2.74 3.12-5.11 3.12-2.65 0-4.92-2.08-4.92-4.73 0-3.69 3.5-6.34 10.13-6.44v-.95c.09-2.65-1.42-4.26-4.07-4.26-1.89 0-3.88 1.23-5.21 2.84-.1.09-.66-.47-.66-.57 1.7-3.41 4.83-5.3 8.05-5.3 3.69 0 6.34 2.65 6.25 7.1l-.28 7.38c0 1.7.76 2.46 1.61 2.46.95 0 1.61-.76 1.99-1.8 0-.09.57.19.57.28 0 2.55-1.89 3.97-4.26 3.97m-3.88-10.13c-2.27.28-3.69.95-4.64 1.89-.76.76-1.14 1.7-1.14 2.65 0 1.7 1.23 2.93 2.74 2.93.95 0 1.89-.38 2.37-.95.19-.19.38-.57.38-.95l.28-5.58z"/><path d="m298.27 141.22h-5.02c-.1 0-.1-.95 0-.95 2.08-.28 2.37-.47 2.37-4.54v-5.68c0-2.56-1.51-4.35-3.69-4.35-1.51 0-2.94.76-3.6 1.7-.47.57-.76 1.61-.76 2.93v5.39c0 4.07.47 4.26 2.56 4.54 0 0 .09.95 0 .95h-9.65c-.09 0-.09-.95-.09-.95 2.27-.38 2.56-.47 2.56-4.54v-6.91c0-4.17-.47-4.35-2.93-4.73-.19 0-.1-.95 0-.95h7.19v4.17h.09c1.61-3.03 4.07-4.83 7.1-4.83 3.41 0 6.06 2.65 6.06 7v6.15c0 4.07.38 4.26 2.65 4.54.19 0 .09.95 0 .95-1.42.09-3.5.09-4.83.09"/><path d="m313.51 141.88c-5.68 0-9.37-4.45-9.37-9.56 0-5.49 3.69-9.84 9.75-9.84 2.84 0 4.26.95 5.11.95.38 0 .76-.28.94-.76 0-.09 1.14-.09 1.14 0v6.81c0 .09-1.14.09-1.14 0-1.51-3.12-3.6-5.77-6.06-5.77-3.03 0-4.83 3.22-4.83 7.67 0 4.73 2.46 7.86 5.87 7.86 2.27 0 4.83-1.61 5.87-3.41.1-.19.85.19.85.38-1.23 3.22-4.45 5.68-8.14 5.68"/><path d="m328.94 132.04c0 4.07 2.27 7.19 6.15 7.19 2.27 0 4.54-1.51 5.77-3.41 0-.09.76.19.76.38-1.04 3.22-4.45 5.68-8.24 5.68-5.96 0-9.46-4.35-9.46-9.56s3.69-9.84 9.94-9.84c4.73 0 7.86 3.12 8.14 7.38v1.32h-12.87c-.19.19-.19.66-.19.85m7.57-2.18v-1.32c0-2.94-1.42-4.64-3.22-4.64-2.27 0-3.98 2.46-4.35 5.96z"/><path d="m351.47 141.88c-2.93 0-5.49-.76-6.34-1.32-.09-.09-.38-2.56-.38-5.02 0-.09 1.14-.19 1.14 0 1.51 3.31 3.69 5.21 6.06 5.21 1.99 0 3.41-1.04 3.41-2.65 0-1.89-2.27-2.75-4.54-3.79-2.74-1.04-5.87-2.46-5.87-5.96 0-2.75 2.37-5.59 6.82-5.59 1.89 0 3.12.76 3.98.76.38 0 .76-.28 1.04-.76 0-.09 1.14-.09 1.14 0v6.25c0 .09-1.14.09-1.14 0-1.51-2.84-3.31-4.83-5.49-4.83-1.99 0-2.93 1.33-2.93 2.37 0 1.89 2.18 2.65 4.45 3.6 2.75 1.14 5.96 2.56 5.96 6.15 0 3.03-2.84 5.58-7.29 5.58"/><path d="m360.84 125.13c-.28 0-.38-.76-.09-.95 1.99-1.8 5.3-4.83 7.1-6.72.09-.09.76 0 .76.19v5.58h6.44c.19 0 .19 1.8 0 1.8h-6.44v10.51c0 2.37 1.42 3.41 2.93 3.41 1.14 0 2.37-.95 2.93-2.08 0-.09.76.28.76.38-.76 2.56-3.22 4.54-5.96 4.54-2.93 0-5.3-1.89-5.3-5.58v-11.07h-3.12z"/><path d="m390.75 128.16c-.57 0-1.99-1.7-3.03-1.7-.47 0-1.04.28-1.51.76-.76.76-1.42 2.56-1.42 4.07v4.54c0 4.16.66 4.26 2.84 4.54 0 0 .09.95 0 .95h-10.03c-.09 0-.09-.95 0-.95 2.27-.38 2.56-.47 2.56-4.54v-6.91c0-4.07-.47-4.35-2.93-4.73-.19 0-.1-.95 0-.95h7.29v4.73h.19c.19-.57.57-1.23.85-1.89 1.32-2.18 2.93-3.5 4.64-3.5 1.61 0 2.93 1.23 2.93 2.55.09 1.52-1.89 3.03-2.37 3.03"/><path d="m412.9 125.04c-.76.76-1.32 2.27-2.56 5.58l-6.15 15.81c-2.18 5.58-4.17 6.72-6.82 6.72-1.51 0-3.22-.76-3.22-1.23-.09-.76.95-3.5 1.51-3.5.19 0 2.46 1.04 3.6 1.04 1.61 0 2.65-1.04 3.5-3.31l1.14-3.03c-.38-1.51-4.92-11.45-5.49-12.78-1.14-2.65-1.89-4.73-2.65-5.49-.47-.47-.95-.66-2.27-.85-.09 0-.09-.95 0-.95 1.23 0 3.79.09 5.21.09s3.88-.09 5.11-.09c.09 0 .09.95 0 .95-2.84.38-2.55 1.33-1.04 5.11l3.31 8.05 2.65-6.91c.95-2.37 1.42-3.79 1.42-4.64 0-1.04-.66-1.42-2.65-1.51-.09 0-.09-1.04 0-1.04 1.33 0 3.03.09 4.17.09.85 0 1.7-.09 3.31-.09.1 0 .19 1.04 0 1.04-1.04.09-1.51.38-2.08.95"/><path d="m233.34 133.65c-.09.09-3.79 5.02-12.49 3.69-7-1.13-9.56-5.02-10.03-5.11.57-.76 5.87-5.02 12.02-4.92 6.06.19 10.51 3.6 10.51 3.6h3.88c-3.12-.95-6.91-2.65-8.61-6.44-1.51-3.5-1.23-5.59-1.89-8.52 0 0 7-.57 12.4 2.93 4.92 3.22 7.67 11.74 7.76 12.02h3.03l-.66-15.14 3.79.09c-.66 3.98.19 32.37 0 32.37-.38.09-3.6.28-3.88-.47 0 0 .76-13.91.85-14.2h-2.93c0 .19-.28 8.05-6.25 12.21-5.96 4.16-14.58 2.93-14.58 2.93 1.04-1.61 0-3.31 3.03-7.95 3.5-5.3 8.14-7.19 8.05-7.19-.28.09-3.88.09-3.98.09m-16.18-1.99c.66.09 2.93 3.03 7 3.41 4.45.47 5.96-1.8 6.06-1.8 0-.28-3.6-4.17-7.57-4.17-2.74.09-5.49 2.56-5.49 2.56m25.93 2.56c-1.04 0-5.3.38-8.14 3.88-2.93 3.69-2.84 6.63-3.5 7.29.57.19 6.53.76 9.09-3.12 2.46-3.6 2.56-7.48 2.56-8.05m-3.98-12.21c-3.31-3.6-6.63-3.03-7.19-2.93.28.09.57 6.34 4.07 9.65 2.37 2.18 7.19 1.42 7.19 1.42s-.85-4.64-4.07-8.14"/><path d="m422.04 124.91c0 1.34-1.05 2.39-2.42 2.39s-2.44-1.05-2.44-2.39 1.08-2.36 2.44-2.36 2.42 1.05 2.42 2.36m-4.25 0c0 1.05.78 1.89 1.84 1.89s1.8-.84 1.8-1.87-.76-1.9-1.81-1.9-1.83.85-1.83 1.89m1.46 1.24h-.55v-2.36c.22-.04.52-.07.91-.07.45 0 .65.07.82.17.13.1.23.29.23.52 0 .26-.2.46-.49.55v.03c.23.09.36.26.43.58.07.36.11.51.17.59h-.59c-.07-.09-.12-.3-.19-.58-.04-.26-.19-.38-.49-.38h-.26v.95zm.01-1.34h.26c.3 0 .55-.1.55-.35 0-.22-.16-.36-.5-.36-.14 0-.25.01-.3.03v.68z"/></g></g></g></svg>