<svg viewBox="0 0 428 152.71" xmlns="http://www.w3.org/2000/svg" xmlns:xlink="http://www.w3.org/1999/xlink"><clipPath id="a"><path d="m0 0h428v152.71h-428z"/></clipPath><clipPath id="b"><path d="m0 0h428v152.71h-428z"/></clipPath><g clip-path="url(#a)"><g clip-path="url(#b)" fill="#fff"><path d="m183.9 130.88c1.23-.95 2.59-1.77 3.95-1.77 2.18 0 3.95 2.05 3.95 4.5 0 3.41-3.14 8.05-9 8.05-.82 0-1.77-.14-2.73-.14l3.68-18.54c.27-1.09-.14-1.64-1.91-1.64l.14-.55 3.54-.95h.68l-2.32 11.05zm-1.77 9.82c.55.14.82.14 1.23.14 3.95 0 6.27-2.59 6.27-6.54 0-2.18-1.09-3.68-2.86-3.68-1.09 0-1.77.41-2.86 1.5l-1.77 8.59z"/><path d="m205.17 130.19c-1.36.14-1.64.68-2.32 2.05l-6.68 12.14c-1.36 2.45-1.91 3.14-2.86 4.09-1.77 1.77-3.82 2.86-5.73 2.86-.27 0-.55-.14-.95-.14l.68-1.91c3.95 0 6.54-2.45 8.86-6.68l-.82-10.09c-.14-2.18-.41-2.45-1.5-2.45l.14-.55h5.18l-.14.55c-1.77 0-2.05.41-1.91 2.05l.54 7.36h.14l3.82-7.09c.41-.68.68-1.23.68-1.64 0-.55-.27-.68-1.09-.68l.14-.55h3.82z"/><path d="m278.54 142.43c-1.89 0-3.6-1.23-4.07-3.13-.95 1.7-2.75 3.13-5.12 3.13-2.65 0-4.93-2.08-4.93-4.74 0-3.69 3.51-6.35 10.14-6.44v-.95c.09-2.65-1.42-4.26-4.07-4.26-1.89 0-3.88 1.23-5.21 2.84-.09.09-.66-.47-.66-.57 1.71-3.41 4.83-5.31 8.05-5.31 3.69 0 6.35 2.65 6.25 7.1l-.28 7.39c0 1.71.76 2.46 1.61 2.46.95 0 1.61-.76 1.99-1.8 0-.09.57.19.57.28 0 2.56-1.89 3.98-4.26 3.98m-3.88-10.14c-2.27.28-3.69.95-4.64 1.89-.76.76-1.14 1.71-1.14 2.65 0 1.71 1.23 2.94 2.75 2.94.95 0 1.9-.38 2.37-.95.19-.19.38-.57.38-.95l.28-5.59z"/><path d="m302.13 141.77h-5.02c-.09 0-.09-.95 0-.95 2.08-.28 2.37-.47 2.37-4.55v-5.68c0-2.56-1.52-4.36-3.69-4.36-1.52 0-2.94.76-3.6 1.71-.47.57-.76 1.61-.76 2.94v5.4c0 4.07.47 4.26 2.56 4.55 0 0 .09.95 0 .95h-9.66c-.09 0-.09-.95-.09-.95 2.27-.38 2.56-.47 2.56-4.55v-6.92c0-4.17-.47-4.36-2.94-4.74-.19 0-.09-.95 0-.95h7.2v4.17h.09c1.61-3.03 4.07-4.83 7.11-4.83 3.41 0 6.06 2.65 6.06 7.01v6.16c0 4.07.38 4.26 2.65 4.55.19 0 .09.95 0 .95-1.42.09-3.5.09-4.83.09"/><path d="m317.38 142.43c-5.68 0-9.38-4.45-9.38-9.57 0-5.5 3.69-9.85 9.76-9.85 2.84 0 4.26.95 5.12.95.38 0 .76-.28.95-.76 0-.09 1.14-.09 1.14 0v6.82c0 .09-1.14.09-1.14 0-1.52-3.13-3.6-5.78-6.06-5.78-3.03 0-4.83 3.22-4.83 7.67 0 4.74 2.46 7.86 5.87 7.86 2.27 0 4.83-1.61 5.87-3.41.09-.19.85.19.85.38-1.23 3.22-4.45 5.68-8.15 5.68"/><path d="m332.83 132.58c0 4.07 2.27 7.2 6.16 7.2 2.27 0 4.55-1.52 5.78-3.41 0-.09.76.19.76.38-1.04 3.22-4.45 5.68-8.24 5.68-5.97 0-9.47-4.36-9.47-9.57s3.69-9.85 9.95-9.85c4.74 0 7.86 3.13 8.15 7.39v1.33h-12.88c-.19.19-.19.66-.19.85m7.58-2.18v-1.33c0-2.94-1.42-4.64-3.22-4.64-2.27 0-3.98 2.46-4.36 5.97z"/><path d="m355.37 142.43c-2.94 0-5.49-.76-6.35-1.33-.09-.09-.38-2.56-.38-5.02 0-.09 1.14-.19 1.14 0 1.52 3.32 3.69 5.21 6.06 5.21 1.99 0 3.41-1.04 3.41-2.65 0-1.89-2.27-2.75-4.55-3.79-2.75-1.04-5.87-2.46-5.87-5.97 0-2.75 2.37-5.59 6.82-5.59 1.9 0 3.13.76 3.98.76.38 0 .76-.28 1.04-.76 0-.09 1.14-.09 1.14 0v6.25c0 .09-1.14.09-1.14 0-1.52-2.84-3.32-4.83-5.5-4.83-1.99 0-2.94 1.33-2.94 2.37 0 1.89 2.18 2.65 4.45 3.6 2.75 1.14 5.97 2.56 5.97 6.16 0 3.03-2.84 5.59-7.29 5.59"/><path d="m364.75 125.66c-.28 0-.38-.76-.09-.95 1.99-1.8 5.31-4.83 7.11-6.73.09-.09.76 0 .76.19v5.59h6.44c.19 0 .19 1.8 0 1.8h-6.44v10.52c0 2.37 1.42 3.41 2.94 3.41 1.14 0 2.37-.95 2.94-2.08 0-.09.76.28.76.38-.76 2.56-3.22 4.55-5.97 4.55-2.94 0-5.31-1.9-5.31-5.59v-11.08h-3.13z"/><path d="m394.69 128.7c-.57 0-1.99-1.71-3.03-1.71-.47 0-1.04.28-1.52.76-.76.76-1.42 2.56-1.42 4.07v4.55c0 4.17.66 4.26 2.84 4.55 0 0 .09.95 0 .95h-10.04c-.09 0-.09-.95 0-.95 2.27-.38 2.56-.47 2.56-4.55v-6.92c0-4.07-.47-4.36-2.94-4.74-.19 0-.09-.95 0-.95h7.29v4.74h.19c.19-.57.57-1.23.85-1.89 1.33-2.18 2.94-3.5 4.64-3.5 1.61 0 2.94 1.23 2.94 2.56.09 1.52-1.89 3.03-2.37 3.03"/><path d="m416.86 125.57c-.76.76-1.33 2.27-2.56 5.59l-6.16 15.82c-2.18 5.59-4.17 6.73-6.82 6.73-1.52 0-3.22-.76-3.22-1.23-.09-.76.95-3.5 1.52-3.5.19 0 2.46 1.04 3.6 1.04 1.61 0 2.65-1.04 3.5-3.31l1.14-3.03c-.38-1.52-4.93-11.46-5.49-12.79-1.14-2.65-1.89-4.74-2.65-5.5-.47-.47-.95-.66-2.27-.85-.09 0-.09-.95 0-.95 1.23 0 3.79.09 5.21.09s3.88-.09 5.12-.09c.09 0 .09.95 0 .95-2.84.38-2.56 1.33-1.04 5.12l3.32 8.05 2.65-6.92c.95-2.37 1.42-3.79 1.42-4.64 0-1.04-.66-1.42-2.65-1.52-.09 0-.09-1.04 0-1.04 1.33 0 3.03.09 4.17.09.85 0 1.71-.09 3.32-.09.09 0 .19 1.04 0 1.04-1.04.09-1.52.38-2.08.95"/><path d="m237.14 134.19c-.09.09-3.79 5.02-12.51 3.69-7.01-1.14-9.57-5.02-10.04-5.12.57-.76 5.87-5.02 12.03-4.93 6.06.19 10.52 3.6 10.52 3.6h3.88c-3.13-.95-6.92-2.65-8.62-6.44-1.52-3.5-1.23-5.59-1.89-8.53 0 0 7.01-.57 12.41 2.94 4.93 3.22 7.67 11.75 7.77 12.03h3.03l-.66-15.16 3.79.09c-.66 3.98.19 32.4 0 32.4-.38.09-3.6.28-3.88-.47 0 0 .76-13.93.85-14.21h-2.94c0 .19-.28 8.05-6.25 12.22s-14.59 2.94-14.59 2.94c1.04-1.61 0-3.32 3.03-7.96 3.51-5.31 8.15-7.2 8.05-7.2-.28.09-3.88.09-3.98.09m-16.2-1.99c.66.09 2.94 3.03 7.01 3.41 4.45.47 5.97-1.8 6.06-1.8 0-.28-3.6-4.17-7.58-4.17-2.75.09-5.5 2.56-5.5 2.56m25.96 2.56c-1.04 0-5.31.38-8.15 3.88-2.94 3.69-2.84 6.63-3.5 7.29.57.19 6.54.76 9.09-3.13 2.46-3.6 2.56-7.48 2.56-8.05m-3.98-12.22c-3.32-3.6-6.63-3.03-7.2-2.94.28.09.57 6.35 4.07 9.66 2.37 2.18 7.2 1.42 7.2 1.42s-.85-4.64-4.07-8.15"/><path d="m426 125.45c0 1.34-1.05 2.39-2.42 2.39s-2.44-1.05-2.44-2.39 1.08-2.37 2.44-2.37 2.42 1.05 2.42 2.37m-4.25 0c0 1.05.78 1.89 1.85 1.89s1.8-.84 1.8-1.87-.76-1.9-1.82-1.9-1.83.85-1.83 1.89m1.46 1.24h-.55v-2.37c.22-.04.52-.07.91-.07.45 0 .65.07.82.17.13.1.23.29.23.52 0 .26-.2.46-.49.55v.03c.23.09.36.26.43.58.07.36.11.5.17.59h-.59c-.07-.09-.11-.3-.19-.58-.04-.26-.19-.37-.49-.37h-.26v.95zm.01-1.34h.26c.3 0 .55-.1.55-.35 0-.22-.16-.36-.5-.36-.14 0-.24.01-.3.03v.68z"/><path d="m7.73 53.55c3.16-.46 6.62-1.31 7.54-2.16.08-3.31.08-4.93.08-7.47v-26.71c0-3.46 0-5.47-.15-8.62-.92-.85-4.31-2-7.46-2.46-.15-.77-.39-2.08-.77-3.23 1.85 0 10.62.15 16.01.15 7.16 0 19.78-.15 24.86-.15-.08.54-.08 1.23-.08 2 0 3.16.54 8.54.92 10.7-.77 0-2.69.31-3.39.54-.77-2.54-4.16-7.31-6.31-8.39-3.54-.38-8.16-.85-10.93-.85-1.23 0-2.16.46-2.69 1.15-.08 2.62-.15 5.7-.15 9.16v9.16c3.08 0 4.31-.08 7.39-.31 2.16-1.15 3.77-4.62 4.31-7 .31.08 1 .15 1.69.15s1.31-.08 1.69-.15c-.15 2.62-.31 7.23-.31 9.24 0 3.23.15 6.62.31 9.24-.38-.08-1-.08-1.69-.08s-1.38 0-1.69.08c-.54-2.39-2.15-5.85-4.31-7-3-.23-3.93-.31-7.39-.31v13.7c0 2.54 0 4.16.08 7.47.92.85 5.16 1.69 8.31 2.16.15.92.46 2.39.85 3.54h-27.56c.38-1.16.69-2.62.85-3.54"/><path d="m81.78 1.67c14.32 0 27.09 10.62 27.09 28.1s-13.39 28.63-28.63 28.63c-14.32 0-27.09-11.55-27.09-28.17 0-18.09 14.39-28.56 28.63-28.56m-.54 52.65c9.85 0 17.09-8.08 17.09-23.94s-8-24.63-17.55-24.63-17.09 8.16-17.09 23.86c0 16.55 8.08 24.71 17.55 24.71"/><path d="m115.49 53.55c2-.23 6.08-1.31 7.54-2.16.08-1.77.15-4.46.15-7.31v-27.02c0-3.69-.08-6.47-.15-8.47-1.31-1.15-5.54-2.23-7.54-2.46-.15-1-.46-2.15-.77-3.23.92 0 7.46.15 10.16.15 5.7-.08 11.47-.15 13.47-.15 12.78 0 18.86 4.62 18.86 12.85s-7.08 12.24-13.39 14.32v.31c1.93.85 3.85 2.16 5.85 4.7 4 5.08 5.93 11.62 10.24 16.24 1.69.92 4.62 1.85 6.62 2.23.15 1 .46 2.46.77 3.54-.92 0-16.24-.08-17.01 0-4.93-5.77-8.93-22.86-14.32-25.55-1 0-2 0-2.93-.15v12.7c0 2.85.08 4.77.15 7.31 1.46.92 4.31 1.85 6.24 2.16.15 1 .46 2.46.77 3.54h-25.48c.31-1.08.62-2.54.77-3.54m17.55-46.26c-.08 1.92-.15 7.77-.15 10.78 0 4.08 0 8.31.08 9.78 1 .23 2.23.38 3.85.38 6 0 9.93-4.62 9.93-10.31 0-6.54-3-11.08-9.77-11.08-1.62 0-2.93.15-3.93.46"/><path d="m197.15 1.67c5.93 0 9.93 2.39 12.47 2.39.61 0 1.62-.62 2.08-1.31.46.31 1.54.46 2.08.54-.08.46-.15 1-.15 1.54 0 3.08.62 10.47 1.08 13.01-.77 0-2.62.31-3.39.62-3.31-8.7-9.39-12.7-14.63-12.7-8.93 0-18.01 8-18.01 23.71s7.54 24.86 18.01 24.86c3.23 0 7.47-.85 9.24-1.77 2.08-2.23 5.08-8.01 6-10.55.69.15 2.62.54 3.39.54-.54 2.54-1.08 8.08-1.08 11.08 0 .46.07.92.07 1.23-4.62 1.92-12.24 3.54-18.78 3.54-15.62 0-27.4-10.93-27.4-27.86s14.4-28.87 29.02-28.87"/><path d="m222.39 57.09c.38-1.16.69-2.62.85-3.54 3.16-.46 6.62-1.31 7.54-2.16.08-3.31.08-4.93.08-7.47v-26.71c0-3.46 0-5.47-.15-8.62-.92-.85-4.31-2-7.46-2.46-.15-.77-.39-2.08-.77-3.23 1.85 0 10.62.15 16.01.15 7.16 0 20.4-.15 25.48-.15-.08.54-.08 1.23-.08 2 0 3.16.54 8.54.92 10.7-.77 0-2.69.31-3.39.54-.85-2.54-4.54-7.39-6.47-8.39-3.16-.54-8.08-.85-11.24-.85-1.23 0-2.39.54-2.85 1.15-.08 2.62-.15 5.7-.15 9.16v8.7c3.08 0 4.62-.08 7.7-.31 2.15-.92 3.77-4.62 4.31-7 .31.08 1 .15 1.69.15s1.31-.08 1.69-.15c-.15 2.62-.31 7.23-.31 9.24 0 3.23.15 6.62.31 9.24-.39-.08-1-.08-1.69-.08s-1.39 0-1.69.08c-.54-2.39-2.16-6.08-4.31-7-2.93-.23-4.85-.31-7.7-.31v14.16c0 3.93.08 7.93.15 8.54.92.46 1.92.62 3.39.62 3.85 0 7.54-.39 11.93-1.08 2.16-.92 6.39-7.93 6.85-10.31.85.23 2.47.54 3.39.54-.77 3.54-1.46 10.62-1.46 13.85 0 .31 0 .46.08.92-10.39-.08-41.32.08-42.64.08"/><path d="m291.05 2.13c4.93 0 8.16 1.77 10.7 1.77.69 0 1.62-.77 2-1.31.77.31 1.54.46 2.08.62-.08.54-.08 2-.08 2.62 0 2.85.39 8.39.85 10.78-.77 0-2.69.38-3.39.69-2.08-7.77-7.08-11.32-12.93-11.32-4.08 0-7.23 3-7.23 7 0 4.39 2.39 7.39 8.39 9.62 14.39 5.39 17.86 9.85 17.86 18.09 0 9.93-8.39 17.32-19.86 17.32-5.16 0-12.32-1.39-16.16-3.54 0-3.08-.08-9.39-.54-13.32 1.08 0 2.46-.31 3.39-.54.92 2.69 4 9.08 5.7 11.24 1.85 1.23 4.85 2.16 8.47 2.16 5.77 0 9.78-4.08 9.78-8.7 0-5.54-2.15-8.31-11.85-12.08-9.01-3.54-14.16-7.54-14.16-16.47 0-8.16 6.46-14.63 17.01-14.63"/><path d="m36.95 67.15c-.16.56-.32 1.16-.4 1.68-1.04.12-2.64.6-3.32 1.2 1.88 5.32 4.68 12.89 7.04 18.53h.16c2.44-6.04 5.64-15.09 6.8-18.57-.68-.48-2.36-1.04-3.4-1.16-.08-.52-.24-1.12-.4-1.68.48 0 3.84.08 5.32.08s5-.08 5.4-.08c-.16.56-.32 1.16-.4 1.68-1.28.28-2.6.8-3.68 1.52-1.4 3.12-6.8 16.67-9.76 25.23 0 .02-2.64-.02-2.64.02-1.76-5.56-4.88-13.45-6.96-18.53h-.16c-2.44 5.76-4.94 12.37-6.98 18.54 0 0-2.61 0-2.62 0-2.8-8.88-8.33-21.37-10.25-25.57-.76-.6-2.12-1.08-3.16-1.2-.08-.52-.24-1.12-.4-1.68.48 0 4.6.08 6.08.08s6.44-.08 6.84-.08c-.16.56-.32 1.16-.4 1.68-1.04.12-2.48.6-3.16 1.2 1.88 5.32 4.68 13.17 7.04 18.45h.16c2-4.8 4.04-9.84 5.52-14.49-.52-1.32-1-2.76-1.64-3.96-.76-.6-2.12-1.08-3.16-1.2-.08-.52-.24-1.12-.4-1.68.48 0 4.6.08 6.08.08s6.44-.08 6.84-.08"/><path d="m63.41 95.33c.16-.56.32-1.32.4-1.84 1.04-.12 2.8-.56 3.56-.8-.68-2.08-1.56-4.36-2.4-6.72-1.4-.04-3.32-.08-4.68-.08-1.72 0-4.2.04-5.4.08-.92 2.28-1.72 4.2-2.36 6.4.68.44 2.48 1 3.52 1.12.08.52.24 1.28.4 1.84h-11.05c.16-.56.36-1.32.44-1.84 1.28-.12 2.72-.64 3.68-1.2 1.52-3.48 8.08-19.57 9.84-25.29.68 0 2.52-.12 3.2-.28 1.84 6.04 8.92 22.97 10.2 25.89.76.36 2.04.76 3.08.88.08.52.24 1.28.4 1.84h-12.85zm.8-11.49c-1.32-4.04-2.8-7.8-4.16-11.17h-.16c-1.24 3.04-3 7.6-4.2 11.17 1.12.04 3.64.04 4.6.04.72 0 2.8 0 3.92-.04"/><path d="m77.5 93.49c1.04-.12 3.16-.68 3.92-1.12.04-.92.08-2.32.08-3.8v-14.05c0-1.92-.04-3.36-.08-4.4-.68-.6-2.88-1.16-3.92-1.28-.08-.52-.24-1.12-.4-1.68.48 0 3.88.08 5.28.08 2.96-.04 5.96-.08 7-.08 6.64 0 9.8 2.4 9.8 6.68s-3.68 6.36-6.96 7.44v.16c1 .44 2 1.12 3.04 2.44 2.08 2.64 3.08 6.04 5.32 8.44.88.48 2.4.96 3.44 1.16.08.52.24 1.28.4 1.84-.48 0-8.45-.04-8.85 0-2.56-3-4.64-11.89-7.44-13.29-.52 0-1.04 0-1.52-.08v6.6c0 1.48.04 2.48.08 3.8.76.48 2.24.96 3.24 1.12.08.52.24 1.28.4 1.84h-13.25c.16-.56.32-1.32.4-1.84m9.13-24.05c-.04 1-.08 4.04-.08 5.6 0 2.12 0 4.32.04 5.08.52.12 1.16.2 2 .2 3.12 0 5.16-2.4 5.16-5.36 0-3.4-1.56-5.76-5.08-5.76-.84 0-1.52.08-2.04.24"/><path d="m118.25 93.49c1.04-.12 3.16-.68 3.92-1.12.04-.92.08-2.32.08-3.8v-14.05c0-1.92-.04-3.36-.08-4.4-.68-.6-2.88-1.16-3.92-1.28-.08-.52-.24-1.12-.4-1.68.48 0 3.88.08 5.28.08 2.96-.04 5.96-.08 7-.08 6.64 0 9.8 2.4 9.8 6.68s-3.68 6.36-6.96 7.44v.16c1 .44 2 1.12 3.04 2.44 2.08 2.64 3.08 6.04 5.32 8.44.88.48 2.4.96 3.44 1.16.08.52.24 1.28.4 1.84-.48 0-8.45-.04-8.85 0-2.56-3-4.64-11.89-7.44-13.29-.52 0-1.04 0-1.52-.08v6.6c0 1.48.04 2.48.08 3.8.76.48 2.24.96 3.24 1.12.08.52.24 1.28.4 1.84h-13.25c.16-.56.32-1.32.4-1.84m9.13-24.05c-.04 1-.08 4.04-.08 5.6 0 2.12 0 4.32.04 5.08.52.12 1.16.2 2 .2 3.12 0 5.16-2.4 5.16-5.36 0-3.4-1.56-5.76-5.08-5.76-.84 0-1.52.08-2.04.24"/><path d="m145.71 95.33c.2-.6.36-1.36.44-1.84 1.64-.24 3.44-.68 3.92-1.12.04-1.72.04-2.56.04-3.88v-13.89c0-1.8 0-2.84-.08-4.48-.48-.44-2.24-1.04-3.88-1.28-.08-.4-.2-1.08-.4-1.68.96 0 5.52.08 8.32.08 3.72 0 10.61-.08 13.25-.08-.04.28-.04.64-.04 1.04 0 1.64.28 4.44.48 5.56-.4 0-1.4.16-1.76.28-.44-1.32-2.36-3.84-3.36-4.36-1.64-.28-4.2-.44-5.84-.44-.64 0-1.24.28-1.48.6-.04 1.36-.08 2.96-.08 4.76v4.52c1.6 0 2.4-.04 4-.16 1.12-.48 1.96-2.4 2.24-3.64.16.04.52.08.88.08s.68-.04.88-.08c-.08 1.36-.16 3.76-.16 4.8 0 1.68.08 3.44.16 4.8-.2-.04-.52-.04-.88-.04s-.72 0-.88.04c-.28-1.24-1.12-3.16-2.24-3.64-1.52-.12-2.52-.16-4-.16v7.36c0 2.04.04 4.12.08 4.44.48.24 1 .32 1.76.32 2 0 3.92-.2 6.2-.56 1.12-.48 3.32-4.12 3.56-5.36.44.12 1.28.28 1.76.28-.4 1.84-.76 5.52-.76 7.2 0 .16 0 .24.04.48-5.4-.04-21.45.04-22.17.04"/><path d="m187.06 66.51c3.08 0 5.16 1.24 6.48 1.24.32 0 .84-.32 1.08-.68.24.16.8.24 1.08.28-.04.24-.08.52-.08.8 0 1.6.32 5.44.56 6.76-.4 0-1.36.16-1.76.32-1.72-4.52-4.88-6.6-7.6-6.6-4.64 0-9.37 4.16-9.37 12.33s3.92 12.93 9.37 12.93c1.68 0 3.88-.44 4.8-.92 1.08-1.16 2.64-4.16 3.12-5.48.36.08 1.36.28 1.76.28-.28 1.32-.56 4.2-.56 5.76 0 .24.04.48.04.64-2.4 1-6.36 1.84-9.76 1.84-8.12 0-14.25-5.68-14.25-14.49s7.48-15.01 15.09-15.01"/><path d="m214.84 66.51c7.44 0 14.09 5.52 14.09 14.61s-6.96 14.89-14.89 14.89c-7.44 0-14.09-6-14.09-14.65 0-9.41 7.48-14.85 14.89-14.85m-.28 27.38c5.12 0 8.88-4.2 8.88-12.45s-4.16-12.81-9.12-12.81-8.89 4.24-8.89 12.41c0 8.6 4.2 12.85 9.13 12.85"/><path d="m231.85 93.49c1.04-.12 3.16-.68 3.92-1.12.04-.92.08-2.32.08-3.8v-14.05c0-1.92-.04-3.36-.08-4.4-.68-.6-2.88-1.16-3.92-1.28-.08-.52-.24-1.12-.4-1.68.48 0 3.88.08 5.28.08 2.96-.04 5.96-.08 7-.08 6.64 0 9.8 2.4 9.8 6.68s-3.68 6.36-6.96 7.44v.16c1 .44 2 1.12 3.04 2.44 2.08 2.64 3.08 6.04 5.32 8.44.88.48 2.4.96 3.44 1.16.08.52.24 1.28.4 1.84-.48 0-8.44-.04-8.84 0-2.56-3-4.64-11.89-7.44-13.29-.52 0-1.04 0-1.52-.08v6.6c0 1.48.04 2.48.08 3.8.76.48 2.24.96 3.24 1.12.08.52.24 1.28.4 1.84h-13.25c.16-.56.32-1.32.4-1.84m9.13-24.05c-.04 1-.08 4.04-.08 5.6 0 2.12 0 4.32.04 5.08.52.12 1.16.2 2 .2 3.12 0 5.16-2.4 5.16-5.36 0-3.4-1.56-5.76-5.08-5.76-.84 0-1.52.08-2.04.24"/><path d="m259.75 93.49c1.64-.24 3.36-.68 3.84-1.12.04-1.72.04-2.56.04-3.88v-13.89c0-1.8 0-2.84-.08-4.48-.48-.44-2.16-1.04-3.8-1.28-.08-.4-.2-1.08-.4-1.68.84 0 4.2.08 6.88.08 1.88 0 5.48-.08 6.4-.08 8.72 0 15.13 5.6 15.13 13.37 0 8.72-7 14.85-15.13 14.85-1.2 0-12.61-.04-13.33-.04.2-.6.36-1.36.44-1.84m12.81-24.25c-1.16 0-2.84.04-3.76.16-.04 2.4-.16 7.4-.16 12.33 0 7.44.12 10.45.16 11.05.68.32 2.36.52 3.8.52 5.56 0 9.68-4.28 9.68-12.29 0-7.4-3.84-11.77-9.72-11.77"/><path d="m300.14 66.75c2.56 0 4.24.92 5.56.92.36 0 .84-.4 1.04-.68.4.16.8.24 1.08.32-.04.28-.04 1.04-.04 1.36 0 1.48.2 4.36.44 5.6-.4 0-1.4.2-1.76.36-1.08-4.04-3.68-5.88-6.72-5.88-2.12 0-3.76 1.56-3.76 3.64 0 2.28 1.24 3.84 4.36 5 7.48 2.8 9.29 5.12 9.29 9.41 0 5.16-4.36 9.01-10.33 9.01-2.68 0-6.4-.72-8.4-1.84 0-1.6-.04-4.88-.28-6.92.56 0 1.28-.16 1.76-.28.48 1.4 2.08 4.72 2.96 5.84.96.64 2.52 1.12 4.4 1.12 3 0 5.08-2.12 5.08-4.52 0-2.88-1.12-4.32-6.16-6.28-4.68-1.84-7.36-3.92-7.36-8.57 0-4.24 3.36-7.6 8.85-7.6"/><path d="m419.01.16c-.96.18-22 2.7-48.15 20.11-26.14-17.42-47.18-19.93-48.14-20.11l.56 15.64c.22.04 23.1 5.52 47.44 21.71v.19s.09-.06.14-.09c.05.03.09.06.14.09v-.19c24.34-16.18 47.23-21.66 47.44-21.71l.56-15.64z"/><path d="m419.01 29.35c-.96.18-22 2.7-48.15 20.11-26.14-17.42-47.18-19.93-48.15-20.11l.56 15.64c.22.04 23.1 5.52 47.44 21.71v.19s.09-.06.14-.09c.05.03.09.06.14.09v-.19c24.34-16.18 47.23-21.66 47.44-21.71l.56-15.64z"/><path d="m419.01 58.54c-.96.18-22 2.7-48.15 20.11-26.14-17.42-47.18-19.93-48.15-20.11l.56 15.64c.22.04 23.1 5.52 47.44 21.71v.19s.09-.06.14-.09c.05.03.09.06.14.09v-.19c24.34-16.18 47.23-21.66 47.44-21.71l.56-15.64z"/></g></g></svg>